<svg viewBox="0 0 24 24" fill="none" xmlns="http://www.w3.org/2000/svg">
    <path class="background" fill="black" d="M14.3333 14.8854C14.3333 13.596 13.2887 12.5507 12 12.5507C10.7113 12.5507 9.66667 13.596 9.66667 14.8854V23.6L1 18.7873V6.51452L12 0.400002L23 6.51452V18.7873L14.3333 23.6V14.8854Z"/>
    <path class="border"     fill="black" fill-rule="evenodd" clip-rule="evenodd" d="M12 0.400002L23 6.51452V18.7873L14.3333 23.6V14.8854C14.3333 13.596 13.2887 12.5507 12 12.5507C10.7113 12.5507 9.66667 13.596 9.66667 14.8854V23.6L1 18.7873V6.51452L12 0.400002ZM3 7.69198V17.6093L7.66667 20.2007V14.8854C7.66667 12.4908 9.60677 10.5496 12 10.5496C14.3932 10.5496 16.3333 12.4908 16.3333 14.8854V20.2007L21 17.6093V7.69198L12 2.68919L3 7.69198Z"/>
</svg>
