<svg xmlns="http://www.w3.org/2000/svg" viewBox="0 0 1600 1740" fill="none">
	<path class="color1" d="M1600 462.056L800 0L0 462.056V1386.17L612.622 1740C617.088 1681.55 654.43 1582.54 710.705 1463.69C695.629 1463.69 680.17 1464.03 664.339 1464.37C564.308 1466.54 449.447 1469.03 322.726 1389.25C280.659 1365.93 194.554 1296.54 266.057 973.433C221.207 944.051 192.848 919.615 150.696 883.294L150.603 883.214C144.49 877.947 138.088 872.43 131.302 866.612C108.237 831.565 95.8889 812.413 92.2992 770.607C88.915 731.192 92.2992 709.513 110.774 671.008C167.226 570.383 294.5 445.627 294.5 445.627C442.815 523.664 512.61 570.382 635.265 676.142C635.265 676.142 631.379 685.874 624.271 702.053C625.676 701.893 627.122 701.812 628.593 701.812C712.026 714.047 686.891 698.759 657.623 680.957L657.621 680.955C652.504 677.843 647.261 674.654 642.45 671.521C595.815 636.77 609.631 628.062 636.028 611.425L636.037 611.42C638.105 610.116 640.25 608.764 642.45 607.347C678.298 591.353 714.048 572.209 747.859 554.103L747.86 554.102C810.261 520.685 866.055 490.806 903.669 490.806C923.773 487.475 942.408 484.976 959.98 483.307C988.973 453.568 1038 443.18 1083.17 455.287C1141.37 470.888 1186.46 522.048 1177.5 577.36C1220.07 629.584 1298.45 694.5 1303.45 772.125C1316.8 945.652 1323.47 1051.43 1303.45 1202.37C1308.58 1243.96 1321.41 1260.9 1348.1 1294.78C1416.51 1357.29 1442.52 1418.39 1450 1472.8L1600 1386.17V462.056Z"/>
	<path class="color1" d="M363.292 1064.18C366.825 1044.29 370.509 1023.54 373.886 1001.47C414.344 997.689 439.685 984.285 469.501 957.996C530.378 893.375 583.008 791.518 611.823 729.568C611.937 729.727 612.053 729.888 612.171 730.049C652.544 785.012 689.194 829.704 723.437 871.46C789.307 951.784 846.266 1021.24 903.669 1132.04C915.986 1158.73 923.738 1180.3 903.669 1202.37L785.119 1332.78C773.179 1332.78 759.286 1332.96 743.945 1333.17L743.919 1333.17C599.031 1335.14 325.037 1338.85 346.846 1202.37C346.846 1156.75 354.609 1113.05 363.292 1064.18L363.292 1064.18Z"/>
	<path class="color2" fill-rule="evenodd" clip-rule="evenodd" d="M1035.35 633.812C1090.11 648.489 1144.01 624.863 1155.75 581.042C1167.48 537.222 1132.61 489.8 1077.85 475.123C1023.1 460.446 969.197 484.071 957.46 527.892C945.723 571.713 980.595 619.134 1035.35 633.812ZM991.829 564.925C991.91 571.119 991.984 576.814 998.097 579.11C1006.83 582.389 1005.88 572.637 1004.77 561.27C1004.09 554.279 1003.35 546.677 1004.77 541.119C1006.02 536.207 1009.32 531.56 1012.4 527.218C1017.54 519.99 1022.07 513.608 1015.55 508.262C1007.24 501.451 996.848 505.799 988.347 512.369C978.916 519.658 972.422 530.627 978.083 541.119C979.502 543.749 981.458 545.014 983.498 546.333C985.139 547.394 986.834 548.49 988.347 550.36C991.693 554.499 991.763 559.878 991.829 564.925Z"/>
	<path class="color2" d="M606.928 690.476C486.118 635.789 297.613 622.555 166.277 623.573C152.189 642.837 139.332 662.139 128.997 680.487C120.368 698.546 115.798 711.592 113.542 724.11C111.262 736.756 111.134 750.012 112.752 768.849C114.379 787.794 117.883 800.753 123.245 812.778C128.6 824.788 135.999 836.378 146.861 852.907C152.892 858.083 158.606 863.006 164.071 867.714L164.126 867.761C206.067 903.894 233.341 927.391 276.582 955.781C281.689 958.014 286.442 960.141 290.924 962.146L290.933 962.15C321.404 975.786 339.319 983.803 370.255 981.173C406.301 978.108 427.898 967.165 455.214 943.218C499.105 896.378 539.234 828.411 568.765 770.912C583.496 742.23 595.388 716.554 603.592 698.062C604.783 695.377 605.896 692.844 606.928 690.476Z"/>
	<path class="color2" d="M1298.21 1257.17C1157.87 1255.66 1047.51 1241.43 930.368 1200.28C927.623 1205.63 923.984 1210.86 919.369 1215.93L859.553 1281.73L768.697 1524.78C795.038 1494 816.745 1465 837.275 1437.58C875.164 1386.97 909.042 1341.72 960.634 1300.43L950.883 1579.2C1005.8 1474.47 1040.69 1413.89 1102.28 1317.37C1122.29 1366.38 1130.69 1404.98 1139.11 1443.71C1147.1 1480.44 1155.11 1517.31 1173.1 1563.29C1198.76 1466.77 1218.77 1413.89 1258.8 1327.13C1301.61 1399.63 1323.77 1451.82 1352.15 1518.7C1358.14 1532.8 1364.4 1547.55 1371.19 1563.29C1400.09 1498.73 1408.2 1445.92 1377.69 1355.64C1365.93 1340.57 1351.77 1325.22 1334.77 1309.69L1333.53 1308.56L1332.49 1307.24C1319.4 1290.61 1308.26 1276.41 1300.04 1260.77C1299.41 1259.57 1298.8 1258.37 1298.21 1257.17Z"/>
</svg>