<svg viewBox="0 0 24 24" fill="none" xmlns="http://www.w3.org/2000/svg">
    <path class="background" fill="black" d="M8.99981 2.5H11.9998V2H23.9998V9L21.0027 9L21.0007 9L20.9987 9.00005C20.9929 9.00015 20.9818 9.00037 20.9657 9.00091C20.9336 9.00198 20.8818 9.00428 20.8132 9.00918C20.6758 9.019 20.4728 9.03912 20.2267 9.08014C19.7297 9.16298 19.0823 9.32678 18.447 9.64443C17.8157 9.96011 17.2147 10.4179 16.7694 11.0859C16.3282 11.7477 15.9998 12.675 15.9998 14C15.9998 14.575 16.1407 14.9398 16.3006 15.1797C16.4647 15.4258 16.6907 15.6024 16.947 15.7306C17.2073 15.8607 17.4797 15.9308 17.6955 15.9667C17.801 15.9843 17.8867 15.9927 17.9421 15.9967C17.9697 15.9986 17.9893 15.9995 17.9994 15.9998L18.0059 16H19.7806L21.2806 22H16.697L16.4496 21.835L16.4484 21.8343C16.4439 21.8314 16.434 21.8252 16.4187 21.8161C16.3881 21.7979 16.3361 21.7681 16.2638 21.7303C16.119 21.6548 15.8938 21.5482 15.5956 21.4398C14.9993 21.223 14.1153 21 12.9998 21C11.8844 21 11.0003 21.223 10.404 21.4398C10.1059 21.5482 9.88056 21.6548 9.73581 21.7303C9.66351 21.7681 9.61156 21.7979 9.58095 21.8161C9.56565 21.8252 9.55571 21.8314 9.55126 21.8343L9.55002 21.835L9.30258 22H4.71903L6.21903 16H7.99368L8.00018 15.9998C8.01036 15.9995 8.02991 15.9986 8.05747 15.9967C8.11291 15.9927 8.19865 15.9843 8.30416 15.9667C8.51992 15.9308 8.79231 15.8607 9.05259 15.7306C9.30896 15.6024 9.53491 15.4258 9.69901 15.1797C9.85893 14.9398 9.99981 14.575 9.99981 14C9.99981 13.425 9.85893 13.0602 9.69901 12.8203C9.53491 12.5742 9.30896 12.3976 9.05259 12.2694C8.79231 12.1393 8.51992 12.0692 8.30416 12.0333C8.19865 12.0157 8.11291 12.0073 8.05747 12.0033C8.02991 12.0014 8.01036 12.0005 8.00018 12.0002L7.99368 12H6.8767L6.75727 11.9701C4.34332 11.3667 2.74409 9.30357 1.78964 7.61766C1.29825 6.7497 0.942834 5.91994 0.710269 5.30877C0.593584 5.00213 0.506805 4.74782 0.448517 4.56777C0.419352 4.47769 0.397257 4.406 0.382062 4.35545C0.374463 4.33016 0.368585 4.31014 0.364406 4.29573L0.359406 4.27835L0.357856 4.27288L0.356936 4.26962L1.3199 4C0.362659 4.26801 0.356884 4.2693 0.356936 4.26962L0.00146484 3H8.99981V2.5Z"/>
    <path class="border"     fill="black" fill-rule="evenodd" clip-rule="evenodd" d="M8.99981 2.5V3H0.00146484L0.356936 4.26962L0.359263 4.27736C0.376491 4.3347 0.42071 4.48189 0.448517 4.56777C0.506805 4.74782 0.593584 5.00213 0.710269 5.30877C0.942834 5.91994 1.29825 6.7497 1.78964 7.61766C2.74409 9.30357 4.34332 11.3667 6.75727 11.9701L6.8767 12L8.00018 12.0002C8.01036 12.0005 8.02991 12.0014 8.05747 12.0033C8.11291 12.0073 8.19865 12.0157 8.30416 12.0333C8.51992 12.0692 8.79231 12.1393 9.05259 12.2694C9.30896 12.3976 9.53491 12.5742 9.69901 12.8203C9.85893 13.0602 9.99981 13.425 9.99981 14C9.99981 14.575 9.85893 14.9398 9.69901 15.1797C9.53491 15.4258 9.30896 15.6024 9.05259 15.7306C8.79231 15.8607 8.51992 15.9308 8.30416 15.9667C8.19865 15.9843 8.11291 15.9927 8.05747 15.9967L6.21903 16L4.71903 22H9.30258L9.55002 21.835C9.58064 21.8168 9.66351 21.7681 9.73581 21.7303C9.88056 21.6548 10.1059 21.5482 10.404 21.4398C11.0003 21.223 11.8844 21 12.9998 21C14.1153 21 14.9993 21.223 15.5956 21.4398C15.8938 21.5482 16.119 21.6548 16.2638 21.7303C16.3361 21.7681 16.4177 21.816 16.4484 21.8343L16.4496 21.835L16.697 22H21.2806L19.7806 16C19.7776 15.9999 19.6222 15.9997 19.4029 15.9995C18.8705 15.999 17.9617 15.9981 17.9421 15.9967C17.8867 15.9927 17.801 15.9843 17.6955 15.9667C17.4797 15.9308 17.2073 15.8607 16.947 15.7306C16.6907 15.6024 16.4647 15.4258 16.3006 15.1797C16.1407 14.9398 15.9998 14.575 15.9998 14C15.9998 12.675 16.3282 11.7477 16.7694 11.0859C17.2147 10.4179 17.8157 9.96011 18.447 9.64443C19.0823 9.32678 19.7297 9.16298 20.2267 9.08014C20.4728 9.03912 20.6758 9.019 20.8132 9.00918C20.8818 9.00428 20.9336 9.00198 20.9657 9.00091L23.9998 9V2H11.9998V2.5H8.99981ZM20.9665 7.00031L21.9998 7V4H13.9998V4.5H10.9998V5H2.73915C2.93715 5.47982 3.19975 6.04886 3.53007 6.63234C4.39463 8.15945 5.59782 9.56533 7.13042 10H7.99981C8.00335 10.0001 8.00776 10.0003 8.01287 10.0004C8.05644 10.0018 8.1512 10.0049 8.19996 10.0084C8.30858 10.0162 8.45721 10.0312 8.63296 10.0605C8.9797 10.1183 9.45731 10.2357 9.94702 10.4806C10.4407 10.7274 10.9647 11.1133 11.3631 11.7109C11.7657 12.3148 11.9998 13.075 11.9998 14C11.9998 14.925 11.7657 15.6852 11.3631 16.2891C10.9647 16.8867 10.4407 17.2726 9.94702 17.5194C9.45731 17.7643 8.9797 17.8817 8.63296 17.9395C8.45721 17.9688 8.30858 17.9838 8.19996 17.9916C8.14548 17.9955 8.10058 17.9976 8.06681 17.9987C8.0558 17.9991 7.94234 17.9994 7.86154 17.9997C7.81835 17.9998 7.78449 17.9999 7.78058 18L7.28058 20H8.73009C8.75535 19.9863 8.78222 19.972 8.81068 19.9572C9.0253 19.8452 9.33126 19.7018 9.72056 19.5602C10.4993 19.277 11.6153 19 12.9998 19C14.3844 19 15.5003 19.277 16.2791 19.5602C16.6684 19.7018 16.9743 19.8452 17.1889 19.9572C17.2174 19.972 17.2443 19.9863 17.2695 20H18.719L18.219 18C18.2151 17.9999 18.1813 17.9998 18.1381 17.9997C18.0573 17.9994 17.9438 17.9991 17.9328 17.9987C17.899 17.9976 17.8541 17.9955 17.7997 17.9916C17.691 17.9838 17.5424 17.9688 17.3667 17.9395C17.0199 17.8817 16.5423 17.7643 16.0526 17.5194C15.559 17.2726 15.0349 16.8867 14.6365 16.2891C14.2339 15.6852 13.9998 14.925 13.9998 14C13.9998 12.325 14.4214 11.0023 15.1053 9.97655C15.7849 8.95706 16.684 8.28989 17.5526 7.85557C18.4173 7.42322 19.2699 7.21202 19.8979 7.10736C20.2143 7.05463 20.4801 7.02788 20.6707 7.01426C20.7662 7.00744 20.8434 7.00388 20.8991 7.00202C20.927 7.00109 20.9496 7.00059 20.9665 7.00031Z"/>
</svg>
