<svg viewBox="0 0 24 24" fill="none" xmlns="http://www.w3.org/2000/svg">
    <path class="background" fill="black" d="M8.55279 7.89443L10.5528 8.89443L11.4472 7.10557L9.44721 6.10557L8.55279 7.89443Z"/>
    <path class="background" fill="black" d="M6.29289 10.7071L7.79289 12.2071L9.20711 10.7929L7.70711 9.29289L6.29289 10.7071Z"/>
    <path class="background" fill="black" d="M3.10557 12.4472L4.10557 14.4472L5.89443 13.5528L4.89443 11.5528L3.10557 12.4472Z"/>
    <path class="background" fill="black" fill-rule="evenodd" clip-rule="evenodd" d="M24 3H0V21H24V3ZM7.92911 5H22V13.9755C21.3191 13.9651 20.6524 13.9673 20 13.981V10.0316L16 6.69829L12 10.0316V14.7825C7.4889 15.6225 4.10689 16.9751 2 18.1585V10.9291C5.06569 10.4906 7.4906 8.06569 7.92911 5Z"/>
    <path class="border"     fill="red" fill-rule="evenodd" clip-rule="evenodd" d="M0 3H24V21H0V3ZM2 5V8.89998C3.95913 8.5023 5.5023 6.95913 5.89998 5H2ZM7.92911 5C7.4906 8.06569 5.06569 10.4906 2 10.9291V18.1585C4.10689 16.9751 7.4889 15.6225 12 14.7825V10.0316L16 6.69829L20 10.0316V13.981C20.6524 13.9673 21.3191 13.9651 22 13.9755V5H7.92911ZM22 15.9757C20.9792 15.9596 19.9924 15.9728 19.0404 16.0112C16.9047 16.0975 14.9435 16.3112 13.1645 16.6079C9.62579 17.198 6.82252 18.1137 4.80396 19H22V15.9757ZM18 14.0604V10.9684L16 9.30171L14 10.9684V14.4562C15.2573 14.2792 16.5914 14.1432 18 14.0604ZM10.5528 8.89443L8.55279 7.89443L9.44721 6.10557L11.4472 7.10557L10.5528 8.89443ZM7.79289 12.2071L6.29289 10.7071L7.70711 9.29289L9.20711 10.7929L7.79289 12.2071ZM4.10557 14.4472L3.10557 12.4472L4.89443 11.5528L5.89443 13.5528L4.10557 14.4472Z"/>
</svg>
