<svg viewBox="0 0 24 24" fill="none" xmlns="http://www.w3.org/2000/svg">
    <path class="background" fill="black" d="M12 5V6H14V5H12Z"/>
    <path class="background" fill="black" fill-rule="evenodd" clip-rule="evenodd" d="M18.4142 2H2V22H22V5.58579L18.4142 2ZM9 6.95727V4H15L14.9997 6.9577C14.9947 6.96476 14.9882 6.97259 14.9804 6.98039C14.9726 6.98819 14.9643 6.995 14.9573 7L9.0423 6.9997C9.03524 6.9947 9.02741 6.98819 9.01961 6.98039C9.01181 6.97259 9.005 6.96433 9 6.95727ZM16 15.0427V20H8L8.0003 15.0423C8.0053 15.0352 8.01181 15.0274 8.01961 15.0196C8.02741 15.0118 8.03567 15.005 8.04273 15L15.9577 15.0003C15.9648 15.0053 15.9726 15.0118 15.9804 15.0196C15.9882 15.0274 15.995 15.0357 16 15.0427Z"/>
    <path class="border"     fill="black" fill-rule="evenodd" clip-rule="evenodd" d="M2 2H18.4142L22 5.58579V22H2V2ZM4 4V20H6V15C6 14.4248 6.27755 13.9332 6.60539 13.6054C6.93324 13.2775 7.42477 13 8 13H16C16.5752 13 17.0668 13.2775 17.3946 13.6054C17.7225 13.9332 18 14.4248 18 15V20H20V6.41421L17.5858 4H17V7C17 7.57523 16.7225 8.06676 16.3946 8.39461C16.0668 8.72245 15.5752 9 15 9H9C8.42477 9 7.93324 8.72245 7.60539 8.39461C7.27755 8.06676 7 7.57523 7 7V4H4ZM9 4V6.95727C8.9999 6.95713 9.0001 6.95742 9 6.95727C9.005 6.96433 9.01181 6.97259 9.01961 6.98039C9.02741 6.98819 9.03524 6.9947 9.0423 6.9997C9.04215 6.9996 9.04244 6.9998 9.0423 6.9997L14.9573 7C14.9571 7.0001 14.9574 6.9999 14.9573 7C14.9643 6.995 14.9726 6.98819 14.9804 6.98039C14.9882 6.97259 14.9947 6.96476 14.9997 6.9577C14.9996 6.95785 14.9998 6.95756 14.9997 6.9577L15 4H9ZM16 20V15.0427C15.9999 15.0426 16.0001 15.0429 16 15.0427C15.995 15.0357 15.9882 15.0274 15.9804 15.0196C15.9726 15.0118 15.9648 15.0053 15.9577 15.0003C15.9576 15.0002 15.9578 15.0004 15.9577 15.0003L8.04273 15C8.04258 15.0001 8.04287 14.9999 8.04273 15C8.03567 15.005 8.02741 15.0118 8.01961 15.0196C8.01181 15.0274 8.0053 15.0352 8.0003 15.0423C8.0002 15.0424 8.0004 15.0422 8.0003 15.0423L8 20H16ZM12 6V5H14V6H12Z"/>
</svg>
