<svg viewBox="0 0 24 24" fill="none" xmlns="http://www.w3.org/2000/svg">
    <path class="background" fill="black" d="M12.0001 12.5C12.0001 11.6716 12.6716 11 13.5001 11C14.3285 11 15.0001 11.6716 15.0001 12.5C15.0001 13.3284 14.3285 14 13.5001 14C13.0856 14 12.712 13.8332 12.4394 13.5607C12.1669 13.2881 12.0001 12.9145 12.0001 12.5Z"/>
    <path class="background" fill="black" fill-rule="evenodd" clip-rule="evenodd" d="M20 5V4C20 3.1946 19.8787 2.33945 19.2696 1.73039C18.6605 1.12133 17.8054 1 17 1H3C2.1946 1 1.33945 1.12133 0.730393 1.73039C0.121332 2.33945 0 3.1946 0 4V20C0 20.8054 0.121332 21.6605 0.730393 22.2696C1.33945 22.8787 2.1946 23 3 23H21C21.8054 23 22.6605 22.8787 23.2696 22.2696C23.8787 21.6605 24 20.8054 24 20V8C24 7.1946 23.8787 6.33945 23.2696 5.73039C22.6605 5.12133 21.8054 5 21 5H20ZM11.9126 3C11.9794 3.32799 12 3.66822 12 4V5H18V4C18 3.3054 17.8713 3.16055 17.8554 3.14461C17.8395 3.12867 17.6946 3 17 3H11.9126ZM13.5001 9C11.5671 9 10.0001 10.567 10.0001 12.5C10.0001 13.1024 10.1528 13.6698 10.4209 14.1649L7.29297 17.2929L8.70718 18.7071L11.8351 15.5791C12.3303 15.8473 12.8977 16 13.5001 16C15.4331 16 17.0001 14.433 17.0001 12.5C17.0001 10.567 15.4331 9 13.5001 9Z"/>
    <path class="border"     fill="black" fill-rule="evenodd" clip-rule="evenodd" d="M13.5001 9C11.5671 9 10.0001 10.567 10.0001 12.5C10.0001 13.1024 10.1528 13.6698 10.4209 14.1649L7.29297 17.2929L8.70718 18.7071L11.8351 15.5791C12.3303 15.8473 12.8977 16 13.5001 16C15.4331 16 17.0001 14.433 17.0001 12.5C17.0001 10.567 15.4331 9 13.5001 9ZM12.0001 12.5C12.0001 11.6716 12.6716 11 13.5001 11C14.3285 11 15.0001 11.6716 15.0001 12.5C15.0001 13.3284 14.3285 14 13.5001 14C13.0856 14 12.712 13.8332 12.4394 13.5607C12.1669 13.2881 12.0001 12.9145 12.0001 12.5Z"/>
    <path class="border"     fill="black" fill-rule="evenodd" clip-rule="evenodd" d="M20 4V5H21C21.8054 5 22.6605 5.12133 23.2696 5.73039C23.8787 6.33945 24 7.1946 24 8V20C24 20.8054 23.8787 21.6605 23.2696 22.2696C22.6605 22.8787 21.8054 23 21 23H3C2.1946 23 1.33945 22.8787 0.730393 22.2696C0.121332 21.6605 0 20.8054 0 20V4C0 3.1946 0.121332 2.33945 0.730393 1.73039C1.33945 1.12133 2.1946 1 3 1H17C17.8054 1 18.6605 1.12133 19.2696 1.73039C19.8787 2.33945 20 3.1946 20 4ZM2 4C2 3.3054 2.12867 3.16055 2.14461 3.14461C2.16055 3.12867 2.3054 3 3 3H9C9.6946 3 9.83945 3.12867 9.85539 3.14461C9.87133 3.16055 10 3.3054 10 4V7H21C21.6946 7 21.8395 7.12867 21.8554 7.14461C21.8713 7.16055 22 7.3054 22 8V20C22 20.6946 21.8713 20.8395 21.8554 20.8554C21.8395 20.8713 21.6946 21 21 21H3C2.3054 21 2.16055 20.8713 2.14461 20.8554C2.12867 20.8395 2 20.6946 2 20V4ZM12 4C12 3.66822 11.9794 3.32799 11.9126 3H17C17.6946 3 17.8395 3.12867 17.8554 3.14461C17.8713 3.16055 18 3.3054 18 4V5H12V4Z"/>
</svg>
