<svg viewBox="0 0 24 24" fill="none" xmlns="http://www.w3.org/2000/svg">
    <path class="background" fill="black" fill-rule="evenodd" clip-rule="evenodd" d="M12 1C11.2479 1 10.5124 1.07563 9.80107 1.22002L9 1.38263V3.51241C8.73983 3.60437 8.48518 3.70793 8.23667 3.82246L6.72545 2.31123L6.04716 2.7485C4.72636 3.59996 3.59996 4.72636 2.7485 6.04716L2.31123 6.72545L3.82246 8.23667C3.70793 8.48518 3.60437 8.73983 3.51241 9H1.38263L1.22002 9.80107C1.07563 10.5124 1 11.2479 1 12C1 12.7521 1.07563 13.4876 1.22002 14.1989L1.38263 15H3.51241C3.60437 15.2602 3.70793 15.5148 3.82246 15.7633L2.31123 17.2746L2.7485 17.9528C3.59996 19.2736 4.72636 20.4 6.04716 21.2515L6.72545 21.6888L8.23667 20.1775C8.48518 20.2921 8.73983 20.3956 9 20.4876V22.6174L9.80107 22.78C10.5124 22.9244 11.2479 23 12 23C12.7521 23 13.4876 22.9244 14.1989 22.78L15 22.6174V20.4876C15.2602 20.3956 15.5148 20.2921 15.7633 20.1775L17.2746 21.6888L17.9528 21.2515C19.2736 20.4 20.4 19.2736 21.2515 17.9528L21.6888 17.2746L20.1775 15.7633C20.2921 15.5148 20.3956 15.2602 20.4876 15H22.6174L22.78 14.1989C22.9244 13.4876 23 12.7521 23 12C23 11.2479 22.9244 10.5124 22.78 9.80107L22.6174 9H20.4876C20.3956 8.73983 20.2921 8.48518 20.1775 8.23667L21.6888 6.72545L21.2515 6.04716C20.4 4.72636 19.2736 3.59996 17.9528 2.7485L17.2746 2.31123L15.7633 3.82246C15.5148 3.70793 15.2602 3.60437 15 3.51241V1.38263L14.1989 1.22002C13.4876 1.07563 12.7521 1 12 1ZM9 12C9 10.3431 10.3431 9 12 9C13.6569 9 15 10.3431 15 12C15 13.6569 13.6569 15 12 15C10.3431 15 9 13.6569 9 12Z"/>
    <path class="border"     fill="black" fill-rule="evenodd" clip-rule="evenodd" d="M9.80107 1.22002C10.5124 1.07563 11.2479 1 12 1C12.7521 1 13.4876 1.07563 14.1989 1.22002L15 1.38263V3.51241C15.2602 3.60437 15.5148 3.70793 15.7633 3.82246L17.2746 2.31123L17.9528 2.7485C19.2736 3.59996 20.4 4.72636 21.2515 6.04716L21.6888 6.72545L20.1775 8.23667C20.2921 8.48518 20.3956 8.73983 20.4876 9H22.6174L22.78 9.80107C22.9244 10.5124 23 11.2479 23 12C23 12.7521 22.9244 13.4876 22.78 14.1989L22.6174 15H20.4876C20.3956 15.2602 20.2921 15.5148 20.1775 15.7633L21.6888 17.2746L21.2515 17.9528C20.4 19.2736 19.2736 20.4 17.9528 21.2515L17.2746 21.6888L15.7633 20.1775C15.5148 20.2921 15.2602 20.3956 15 20.4876V22.6174L14.1989 22.78C13.4876 22.9244 12.7521 23 12 23C11.2479 23 10.5124 22.9244 9.80107 22.78L9 22.6174V20.4876C8.73983 20.3956 8.48518 20.2921 8.23667 20.1775L6.72545 21.6888L6.04716 21.2515C4.72636 20.4 3.59996 19.2736 2.7485 17.9528L2.31123 17.2746L3.82246 15.7633C3.70793 15.5148 3.60437 15.2602 3.51241 15H1.38263L1.22002 14.1989C1.07563 13.4876 1 12.7521 1 12C1 11.2479 1.07563 10.5124 1.22002 9.80107L1.38263 9H3.51241C3.60437 8.73983 3.70793 8.48518 3.82246 8.23667L2.31123 6.72545L2.7485 6.04716C3.59996 4.72636 4.72636 3.59996 6.04716 2.7485L6.72545 2.31123L8.23667 3.82246C8.48518 3.70793 8.73983 3.60437 9 3.51241V1.38263L9.80107 1.22002ZM11 3.05484V5.02724L10.2493 5.22047C9.64408 5.37624 9.07041 5.61103 8.53977 5.91344L7.87697 6.29118L6.47819 4.8924C5.88615 5.35309 5.35309 5.88615 4.8924 6.47819L6.29118 7.87697L5.91344 8.53977C5.61103 9.07041 5.37624 9.64408 5.22047 10.2493L5.02724 11H3.05484C3.01862 11.3281 3 11.6617 3 12C3 12.3383 3.01862 12.6719 3.05484 13H5.02724L5.22047 13.7507C5.37624 14.3559 5.61103 14.9296 5.91344 15.4602L6.29118 16.123L4.8924 17.5218C5.35309 18.1139 5.88615 18.6469 6.47819 19.1076L7.87697 17.7088L8.53977 18.0866C9.07041 18.389 9.64408 18.6238 10.2493 18.7795L11 18.9728V20.9452C11.3281 20.9814 11.6617 21 12 21C12.3383 21 12.6719 20.9814 13 20.9452V18.9728L13.7507 18.7795C14.3559 18.6238 14.9296 18.389 15.4602 18.0866L16.123 17.7088L17.5218 19.1076C18.1139 18.6469 18.6469 18.1139 19.1076 17.5218L17.7088 16.123L18.0866 15.4602C18.389 14.9296 18.6238 14.3559 18.7795 13.7507L18.9728 13H20.9452C20.9814 12.6719 21 12.3383 21 12C21 11.6617 20.9814 11.3281 20.9452 11H18.9728L18.7795 10.2493C18.6238 9.64408 18.389 9.07041 18.0866 8.53977L17.7088 7.87697L19.1076 6.47819C18.6469 5.88615 18.1139 5.35309 17.5218 4.8924L16.123 6.29118L15.4602 5.91344C14.9296 5.61103 14.3559 5.37624 13.7507 5.22047L13 5.02724V3.05484C12.6719 3.01862 12.3383 3 12 3C11.6617 3 11.3281 3.01862 11 3.05484ZM12 9C10.3431 9 9 10.3431 9 12C9 13.6569 10.3431 15 12 15C13.6569 15 15 13.6569 15 12C15 10.3431 13.6569 9 12 9ZM7 12C7 9.23858 9.23858 7 12 7C14.7614 7 17 9.23858 17 12C17 14.7614 14.7614 17 12 17C9.23858 17 7 14.7614 7 12Z"/>
</svg>
