<svg viewBox="0 0 24 24" fill="none" xmlns="http://www.w3.org/2000/svg">
    <path class="background" fill="black" d="M9.3261 3.68345L7.61606 0.263931L5.90602 3.68345L0.450195 5.50175L5.90602 7.32006L7.61606 10.7396L9.3261 7.32006L14.7819 5.50175L9.3261 3.68345Z"/>
    <path class="background" fill="black" d="M15.8364 12.7005L13.1188 7.26628L10.4012 12.7005L2.68742 15.5051L10.4012 18.3097L13.1188 23.7439L15.8364 18.3097L23.5502 15.5051L15.8364 12.7005Z"/>
    <path class="border"     fill="black" fill-rule="evenodd" clip-rule="evenodd" d="M7.61606 0.263931L9.3261 3.68345L14.7819 5.50175L9.3261 7.32006L7.61606 10.7396L5.90602 7.32006L0.450195 5.50175L5.90602 3.68345L7.61606 0.263931ZM7.61606 4.73757L7.3251 5.31939L6.77791 5.50175L7.3251 5.68412L7.61606 6.26594L7.90702 5.68412L8.4542 5.50175L7.90702 5.31939L7.61606 4.73757ZM13.1188 7.26628L15.8364 12.7005L23.5502 15.5051L15.8364 18.3097L13.1188 23.7439L10.4012 18.3097L2.68742 15.5051L10.4012 12.7005L13.1188 7.26628ZM13.1188 11.7399L11.8344 14.3083L8.54269 15.5051L11.8344 16.7019L13.1188 19.2703L14.4032 16.7019L17.6949 15.5051L14.4032 14.3083L13.1188 11.7399Z"/>
</svg>
