<svg viewBox="0 0 24 24" fill="none" xmlns="http://www.w3.org/2000/svg">
    <path class="background" fill="black" d="M17 3.05221V0.0800018L11.0858 5.99709L17 11.9142V9.23436C17.2074 9.35795 17.3648 9.5241 17.4918 9.71817C17.814 10.2107 18 10.9867 18 12C18 13.0133 17.814 13.7893 17.4918 14.2818C17.212 14.7094 16.7846 15.0015 16 15.0015H15V21.0044H16C18.5052 21.0044 20.5384 19.9771 21.9274 18.2974C23.3005 16.6368 24 14.3967 24 12C24 9.60333 23.3005 7.3632 21.9274 5.70265C20.7282 4.25245 19.0488 3.28854 17 3.05221Z"/>
    <path class="background" fill="black" d="M8 2.99563C5.49484 2.99563 3.46161 4.02295 2.07265 5.70265C0.699515 7.3632 0 9.60333 0 12C0 14.3967 0.699515 16.6368 2.07265 18.2974C3.27183 19.7475 4.95125 20.7115 7 20.9478V23.92L12.9142 18.0029L7 12.0858V14.7656C6.79261 14.6421 6.63523 14.4759 6.50824 14.2818C6.18597 13.7893 6 13.0133 6 12C6 10.9867 6.18597 10.2107 6.50824 9.71817C6.78802 9.29058 7.21537 8.99854 8 8.99854H9V2.99563H8Z"/>
    <path class="border"     fill="black" fill-rule="evenodd" clip-rule="evenodd" d="M17 0.0800018V3.05221C19.0488 3.28854 20.7282 4.25245 21.9274 5.70265C23.3005 7.3632 24 9.60333 24 12C24 14.3967 23.3005 16.6368 21.9274 18.2974C20.5384 19.9771 18.5052 21.0044 16 21.0044H15V15.0015H16C16.7846 15.0015 17.212 14.7094 17.4918 14.2818C17.814 13.7893 18 13.0133 18 12C18 10.9867 17.814 10.2107 17.4918 9.71817C17.3648 9.5241 17.2074 9.35795 17 9.23436V11.9142L11.0858 5.99709L17 0.0800018ZM15 7.0834V6.99757H16C17.4245 6.99757 18.4972 7.60141 19.1651 8.62223C19.7905 9.5781 20 10.8031 20 12C20 13.1969 19.7905 14.4219 19.1651 15.3778C18.6639 16.1438 17.9347 16.6751 17 16.8925V18.9293C18.4317 18.7102 19.563 18.0175 20.3864 17.0219C21.4087 15.7856 22 14.0238 22 12C22 9.97625 21.4087 8.21443 20.3864 6.97815C19.3799 5.76101 17.9131 4.9966 16 4.9966H15V4.91077L13.9142 5.99709L15 7.0834ZM2.07265 5.70265C3.46161 4.02295 5.49484 2.99563 8 2.99563H9V8.99854H8C7.21537 8.99854 6.78802 9.29058 6.50824 9.71817C6.18597 10.2107 6 10.9867 6 12C6 13.0133 6.18597 13.7893 6.50824 14.2818C6.63523 14.4759 6.79261 14.6421 7 14.7656V12.0858L12.9142 18.0029L7 23.92V20.9478C4.95125 20.7115 3.27183 19.7475 2.07265 18.2974C0.699515 16.6368 0 14.3967 0 12C0 9.60333 0.699515 7.3632 2.07265 5.70265ZM9 19.0892L10.0858 18.0029L9 16.9166V17.0024H8C6.57549 17.0024 5.50284 16.3986 4.8349 15.3778C4.20947 14.4219 4 13.1969 4 12C4 10.8031 4.20947 9.5781 4.8349 8.62223C5.33614 7.85618 6.06528 7.32495 7 7.1075V5.07067C5.56829 5.2898 4.43696 5.9825 3.61364 6.97815C2.59135 8.21443 2 9.97625 2 12C2 14.0238 2.59135 15.7856 3.61364 17.0219C4.62011 18.239 6.08689 19.0034 8 19.0034H9V19.0892Z"/>
</svg>
